<svg id="Layer_1" data-name="Layer 1" xmlns="http://www.w3.org/2000/svg" viewBox="0 0 1024 1024"><defs><style>.cls-1{fill:#2d3f30;}.cls-2{fill:#1e1e1e;}.cls-3{fill:#fff;}.cls-4{fill:#d1a056;}</style></defs><title>Logo IH 03</title><rect class="cls-1" width="1024" height="1024"/><rect class="cls-2" y="984.95" width="1024" height="39.05"/><path class="cls-3" d="M318.17,992.84h4.31a13.64,13.64,0,0,1,8.38,2.46,8.13,8.13,0,0,1,3.31,7,8.41,8.41,0,0,1-3.29,7.17,13.66,13.66,0,0,1-8.48,2.49h-4.23Zm2.6,16.93h.91a18.69,18.69,0,0,0,3.82-.37,9,9,0,0,0,3.13-1.24,6.5,6.5,0,0,0,2.14-2.28,6.89,6.89,0,0,0,.8-3.48,7.31,7.31,0,0,0-.78-3.51,5.75,5.75,0,0,0-2.2-2.28,10.72,10.72,0,0,0-3.11-1.21,17,17,0,0,0-3.8-.38h-.91Z"/><path class="cls-3" d="M338,1006.4a4.19,4.19,0,0,0,1.1,2.76,3.62,3.62,0,0,0,2.79,1.17,4,4,0,0,0,2.23-.57,5.89,5.89,0,0,0,1.64-1.74l2.11,1.09a6.53,6.53,0,0,1-2.51,2.38,7.13,7.13,0,0,1-3.49.86,6,6,0,0,1-6.36-6.23,6.6,6.6,0,0,1,1.63-4.61,6,6,0,0,1,4.67-1.78,5.64,5.64,0,0,1,4.51,1.78,6.64,6.64,0,0,1,1.55,4.53v.36Zm7.38-1.73a3.47,3.47,0,0,0-1.15-2.16,3.6,3.6,0,0,0-2.42-.8,3.88,3.88,0,0,0-1.34.22,3.56,3.56,0,0,0-1.11.62,3.49,3.49,0,0,0-.8,1,3.66,3.66,0,0,0-.43,1.17Z"/><path class="cls-3" d="M355.18,1002.8a1.78,1.78,0,0,0-1.66-1,1.49,1.49,0,0,0-.94.34,1,1,0,0,0-.41.83,1,1,0,0,0,.31.77,3.46,3.46,0,0,0,.87.6l.56.24.63.26a2.52,2.52,0,0,0,.39.15,1.22,1.22,0,0,1,.25.11,7,7,0,0,1,2.18,1.34,2.64,2.64,0,0,1,.8,2,3.58,3.58,0,0,1-1.32,2.81,4.67,4.67,0,0,1-3.13,1.11,5.44,5.44,0,0,1-2.72-.72,4.53,4.53,0,0,1-1.05-.83,3.71,3.71,0,0,1-.7-1.11l2.12-.88a2.7,2.7,0,0,0,2.35,1.52,2,2,0,0,0,1.08-.3,1.77,1.77,0,0,0,.73-.73,1.27,1.27,0,0,0,.1-1,1.81,1.81,0,0,0-.86-1l-2.43-1.19a9.86,9.86,0,0,1-1.1-.61,3.71,3.71,0,0,1-.78-.64,2.63,2.63,0,0,1-.46-.77,3.28,3.28,0,0,1,1-3.4,3.85,3.85,0,0,1,2.71-1,3.73,3.73,0,0,1,3.54,2.08Z"/><path class="cls-3" d="M364.1,994.66a1.41,1.41,0,0,1-.49,1.09,1.73,1.73,0,0,1-1.22.46,1.69,1.69,0,0,1-1.21-.46,1.42,1.42,0,0,1-.5-1.09,1.5,1.5,0,0,1,.5-1.12,1.66,1.66,0,0,1,1.21-.47,1.7,1.7,0,0,1,1.22.47A1.49,1.49,0,0,1,364.1,994.66Zm-.47,17.29h-2.48v-11.86h2.48Z"/><path class="cls-3" d="M379.72,1011.72a8.57,8.57,0,0,1-1.38,5.2q-1.38,1.82-4.92,1.82a6.81,6.81,0,0,1-4.48-1.44,5.07,5.07,0,0,1-1.77-3.93h2.49a3,3,0,0,0,1.06,2.47,4.33,4.33,0,0,0,2.81.87,3.32,3.32,0,0,0,2.92-1.14,5.58,5.58,0,0,0,.78-3.22v-2.25h-.05a5.56,5.56,0,0,1-1.92,1.66,5.26,5.26,0,0,1-2.47.59,5.77,5.77,0,0,1-4.54-1.85,6.55,6.55,0,0,1-1.66-4.56,6.15,6.15,0,0,1,1.69-4.36,5.67,5.67,0,0,1,4.39-1.85,5.23,5.23,0,0,1,4.51,2.39h.05v-2h2.49Zm-6.55-1.39a3.9,3.9,0,0,0,3.07-1.25,4.4,4.4,0,0,0,1.14-3.06,4.32,4.32,0,0,0-1.14-3,3.89,3.89,0,0,0-3.07-1.24,3.79,3.79,0,0,0-3,1.27,4.33,4.33,0,0,0-1.11,3,4.4,4.4,0,0,0,1.11,3A3.82,3.82,0,0,0,373.17,1010.33Z"/><path class="cls-3" d="M385.44,1001.68h.06a3.68,3.68,0,0,1,1.6-1.44,5.2,5.2,0,0,1,2.3-.51,5.72,5.72,0,0,1,2.15.36,3.4,3.4,0,0,1,1.42,1,4.1,4.1,0,0,1,.78,1.61,9.44,9.44,0,0,1,.23,2.17V1012H391.5v-6.79a4.6,4.6,0,0,0-.56-2.56,2.56,2.56,0,0,0-2.29-.84,4.13,4.13,0,0,0-1.08.12,2.55,2.55,0,0,0-.77.32,2.27,2.27,0,0,0-.56.5,5.88,5.88,0,0,0-.41.61,1.82,1.82,0,0,0-.15.45c-.05.19-.09.38-.13.57s-.06.39-.08.59,0,.35,0,.46V1012H383v-11.86h2.48Z"/><path class="cls-3" d="M405.2,990h2.49v12.11h.06a5.33,5.33,0,0,1,4.5-2.33,5.68,5.68,0,0,1,4.4,1.85,6.19,6.19,0,0,1,1.68,4.36,6.59,6.59,0,0,1-1.65,4.56,5.77,5.77,0,0,1-4.54,1.85,5.26,5.26,0,0,1-2.47-.59,5.38,5.38,0,0,1-1.92-1.66h-.06V1012H405.2Zm6.44,20.38a3.87,3.87,0,0,0,3.07-1.25,4.4,4.4,0,0,0,1.14-3.06,4.32,4.32,0,0,0-1.14-3,3.87,3.87,0,0,0-3.07-1.24,3.8,3.8,0,0,0-3,1.27,4.33,4.33,0,0,0-1.11,3,4.4,4.4,0,0,0,1.11,3A3.83,3.83,0,0,0,411.64,1010.33Z"/><path class="cls-3" d="M418.69,1000.09h2.91l4.36,7.52,4.06-7.52h2.8l-10.48,18.65h-2.82l5.09-8.82Z"/><path class="cls-3" d="M445.36,1007.16,443,1012H440.2L450.15,992l10,19.92h-2.79l-2.38-4.79Zm4.79-9.91-3.71,7.73h7.41Z"/><path class="cls-3" d="M464.16,1012h-2.49V990h2.49Z"/><path class="cls-3" d="M470.29,1012h-2.48V990h2.48Z"/><path class="cls-3" d="M479.75,1002.87v1.91H473.7v-1.91Z"/><path class="cls-3" d="M489.42,992.26a4.9,4.9,0,0,0-1.66-.48,1.37,1.37,0,0,0-1.16.46,2.79,2.79,0,0,0-.5,1.16c-.05.33-.08.6-.09.8s0,.46,0,.8v5.09h3.43v2.12H486V1012h-2.48v-9.74h-1.14v-2.12h1.14v-5.78q0-4.66,4.17-4.67a5.06,5.06,0,0,1,1.74.31Z"/><path class="cls-3" d="M493.26,1002h.08a3.87,3.87,0,0,1,1.39-1.67,3.8,3.8,0,0,1,2.15-.61,4.1,4.1,0,0,1,2.05.58l-1.13,2.09a2.41,2.41,0,0,0-1.52-.49,2.52,2.52,0,0,0-2.55,1.42,5.37,5.37,0,0,0-.37,1.31,9.31,9.31,0,0,0-.1,1.48V1012h-2.48v-11.86h2.48Z"/><path class="cls-3" d="M501.8,1006.4a4.25,4.25,0,0,0,1.11,2.76,3.62,3.62,0,0,0,2.79,1.17,4,4,0,0,0,2.23-.57,6,6,0,0,0,1.64-1.74l2.1,1.09a6.43,6.43,0,0,1-2.5,2.38,7.17,7.17,0,0,1-3.5.86,6,6,0,0,1-6.35-6.23,6.6,6.6,0,0,1,1.63-4.61,6,6,0,0,1,4.67-1.78,5.6,5.6,0,0,1,4.5,1.78,6.64,6.64,0,0,1,1.55,4.53v.36Zm7.39-1.73a3.36,3.36,0,0,0-3.57-3,3.88,3.88,0,0,0-1.34.22,3.45,3.45,0,0,0-1.11.62,3.49,3.49,0,0,0-.8,1,3.43,3.43,0,0,0-.43,1.17Z"/><path class="cls-3" d="M515.29,1006.4a4.25,4.25,0,0,0,1.11,2.76,3.59,3.59,0,0,0,2.78,1.17,4,4,0,0,0,2.23-.57,5.89,5.89,0,0,0,1.64-1.74l2.11,1.09a6.57,6.57,0,0,1-2.5,2.38,7.2,7.2,0,0,1-3.5.86,6,6,0,0,1-6.36-6.23,6.64,6.64,0,0,1,1.63-4.61,6,6,0,0,1,4.67-1.78,5.64,5.64,0,0,1,4.51,1.78,6.64,6.64,0,0,1,1.55,4.53v.36Zm7.38-1.73a3.47,3.47,0,0,0-1.15-2.16,3.58,3.58,0,0,0-2.42-.8,3.92,3.92,0,0,0-1.34.22,3.4,3.4,0,0,0-1.1.62,3.32,3.32,0,0,0-.8,1,3.24,3.24,0,0,0-.43,1.17Z"/><path class="cls-3" d="M533.2,1002.87v1.91h-6.05v-1.91Z"/><path class="cls-3" d="M546.11,1010.1h-.06a5.56,5.56,0,0,1-1.92,1.66,5.23,5.23,0,0,1-2.47.59,5.77,5.77,0,0,1-4.54-1.85,6.59,6.59,0,0,1-1.65-4.56,6.19,6.19,0,0,1,1.68-4.36,5.67,5.67,0,0,1,4.39-1.85,5.34,5.34,0,0,1,4.51,2.33h.06V990h2.49v22h-2.49Zm-4.07.23a3.89,3.89,0,0,0,3.07-1.25,4.39,4.39,0,0,0,1.13-3.06,4.31,4.31,0,0,0-1.13-3,3.88,3.88,0,0,0-3.07-1.24,3.79,3.79,0,0,0-3,1.27,4.32,4.32,0,0,0-1.1,3,4.39,4.39,0,0,0,1.1,3A3.82,3.82,0,0,0,542,1010.33Z"/><path class="cls-3" d="M552.66,1001.56a7,7,0,0,1,4.92-1.83,7,7,0,0,1,4.89,1.83,6,6,0,0,1,0,9,7,7,0,0,1-4.89,1.82,7,7,0,0,1-4.92-1.82,6,6,0,0,1,0-9Zm.49,4.48a4,4,0,0,0,1.3,2.92,4.36,4.36,0,0,0,3.13,1.21,4.42,4.42,0,0,0,3.12-1.21A4,4,0,0,0,562,1006a3.88,3.88,0,0,0-1.29-2.91,4.42,4.42,0,0,0-3.12-1.22,4.36,4.36,0,0,0-3.13,1.22A3.9,3.9,0,0,0,553.15,1006Z"/><path class="cls-3" d="M571.17,1007.64l3.82-8.21,3.79,8.21,3.75-7.55h2.82l-6.57,12.26-3.79-7.93-3.82,7.93-6.57-12.26h2.81Z"/><path class="cls-3" d="M589.08,1001.68h.06a3.65,3.65,0,0,1,1.61-1.44,5.16,5.16,0,0,1,2.29-.51,5.78,5.78,0,0,1,2.16.36,3.43,3.43,0,0,1,1.41,1,4,4,0,0,1,.78,1.61,8.92,8.92,0,0,1,.23,2.17V1012h-2.49v-6.79a4.61,4.61,0,0,0-.55-2.56,2.56,2.56,0,0,0-2.29-.84,4.18,4.18,0,0,0-1.08.12,2.55,2.55,0,0,0-.77.32,2.47,2.47,0,0,0-.56.5,5.88,5.88,0,0,0-.41.61,3.36,3.36,0,0,0-.15.45,5.78,5.78,0,0,0-.12.57c0,.2-.07.39-.09.59s0,.35,0,.46V1012H586.6v-11.86h2.48Z"/><path class="cls-3" d="M603.65,1012h-2.49V990h2.49Z"/><path class="cls-3" d="M608,1001.56a7,7,0,0,1,4.92-1.83,7,7,0,0,1,4.89,1.83,6,6,0,0,1,0,9,7,7,0,0,1-4.89,1.82,7,7,0,0,1-4.92-1.82,6,6,0,0,1,0-9Zm.5,4.48a4,4,0,0,0,1.29,2.92,4.64,4.64,0,0,0,6.25,0,4,4,0,0,0,1.3-2.92,3.93,3.93,0,0,0-1.3-2.91,4.61,4.61,0,0,0-6.25,0A3.92,3.92,0,0,0,608.52,1006Z"/><path class="cls-3" d="M634.25,1012h-2.49v-1.85h0a5.22,5.22,0,0,1-4.4,2.25,5.83,5.83,0,0,1-4.54-1.85,6.59,6.59,0,0,1-1.65-4.56,6.19,6.19,0,0,1,1.68-4.36,5.73,5.73,0,0,1,4.43-1.85,5.34,5.34,0,0,1,4.48,2.33h0v-2h2.49Zm-6.55-1.62a3.88,3.88,0,0,0,3.06-1.25,4.4,4.4,0,0,0,1.14-3.06,4.32,4.32,0,0,0-1.14-3,3.87,3.87,0,0,0-3.06-1.24,3.79,3.79,0,0,0-3,1.27,4.32,4.32,0,0,0-1.1,3,4.39,4.39,0,0,0,1.1,3A3.82,3.82,0,0,0,627.7,1010.33Z"/><path class="cls-3" d="M647.12,1010.1h0a5.47,5.47,0,0,1-1.92,1.66,5.23,5.23,0,0,1-2.47.59,5.74,5.74,0,0,1-4.53-1.85,6.56,6.56,0,0,1-1.67-4.56,6.15,6.15,0,0,1,1.69-4.36,5.69,5.69,0,0,1,4.39-1.85,5.34,5.34,0,0,1,4.51,2.33h0V990h2.49v22h-2.49Zm-4,.23a3.89,3.89,0,0,0,3.06-1.25,4.39,4.39,0,0,0,1.13-3.06,4.31,4.31,0,0,0-1.13-3,3.89,3.89,0,0,0-3.06-1.24,3.79,3.79,0,0,0-3,1.27,4.33,4.33,0,0,0-1.11,3,4.4,4.4,0,0,0,1.11,3A3.82,3.82,0,0,0,643.07,1010.33Z"/><path class="cls-3" d="M656.75,1010.88a1.36,1.36,0,0,1-.47,1,1.64,1.64,0,0,1-1.14.43,1.6,1.6,0,0,1-1.13-.43,1.36,1.36,0,0,1,0-2.06,1.56,1.56,0,0,1,1.13-.44,1.6,1.6,0,0,1,1.14.44A1.36,1.36,0,0,1,656.75,1010.88Z"/><path class="cls-3" d="M670.35,1003.46a5,5,0,0,0-3.71-1.6,4.27,4.27,0,0,0-3.07,1.24,4.05,4.05,0,0,0-1.24,2.92,3.92,3.92,0,0,0,1.24,3,4.61,4.61,0,0,0,3.24,1.2,4.85,4.85,0,0,0,3.54-1.58v2.92a8.09,8.09,0,0,1-3.57.78,7.13,7.13,0,0,1-4.92-1.8,5.64,5.64,0,0,1-2-4.43,5.87,5.87,0,0,1,2-4.56,7.24,7.24,0,0,1,5.06-1.83,7.12,7.12,0,0,1,3.43.79Z"/><path class="cls-3" d="M673.86,1001.56a7,7,0,0,1,4.91-1.83,6.93,6.93,0,0,1,4.89,1.83,6,6,0,0,1,0,9,6.93,6.93,0,0,1-4.89,1.82,7,7,0,0,1-4.91-1.82,6,6,0,0,1,0-9Zm.49,4.48a4,4,0,0,0,1.3,2.92,4.35,4.35,0,0,0,3.12,1.21,4.42,4.42,0,0,0,3.13-1.21,4,4,0,0,0,1.3-2.92,3.93,3.93,0,0,0-1.3-2.91,4.43,4.43,0,0,0-3.13-1.22,4.36,4.36,0,0,0-3.12,1.22A3.9,3.9,0,0,0,674.35,1006Z"/><path class="cls-3" d="M690.35,1001.58h.06a4.33,4.33,0,0,1,1.48-1.33,4,4,0,0,1,1.94-.52,4.19,4.19,0,0,1,3.74,2.11,4.36,4.36,0,0,1,1.67-1.54,4.82,4.82,0,0,1,2.31-.57c2.86,0,4.28,1.71,4.28,5.12v7.1h-2.49v-6.72c0-.3,0-.6,0-.9a5,5,0,0,0-.15-.86,2.53,2.53,0,0,0-.33-.77,2.3,2.3,0,0,0-.61-.64,2.44,2.44,0,0,0-1.27-.3,2.75,2.75,0,0,0-1.33.3,2.34,2.34,0,0,0-.81.7,3.65,3.65,0,0,0-.46,1,8.79,8.79,0,0,0-.21,1.14c0,.34,0,.73,0,1.17V1012h-2.48v-6.29c0-.4,0-.74,0-1a8.87,8.87,0,0,0-.16-1,2.68,2.68,0,0,0-.37-1,2,2,0,0,0-.69-.63,2.13,2.13,0,0,0-1.13-.28,2.34,2.34,0,0,0-2.46,1.52,6.22,6.22,0,0,0-.33,1.34,11,11,0,0,0-.09,1.5V1012h-2.48v-11.86h2.48Z"/><rect class="cls-3" x="260.19" y="1003.41" width="35.21" height="1.58"/><rect class="cls-3" x="728.61" y="1003.41" width="35.2" height="1.58"/><circle class="cls-4" cx="517.45" cy="320.05" r="13.89"/><polygon class="cls-4" points="567.43 345.12 567.43 408.99 467.46 408.99 467.46 345.12 439.69 345.12 439.69 500.63 467.46 500.63 467.46 436.76 567.43 436.76 567.43 500.63 595.2 500.63 595.2 345.12 567.43 345.12"/><path class="cls-4" d="M531.33,345.12V500.63H503.56V345.12Z"/><path class="cls-4" d="M303.84,596.76h-8V555.14h8Z"/><path class="cls-4" d="M321.55,596.71V566h7.07v4.89a10.74,10.74,0,0,1,3.13-4.13,6.88,6.88,0,0,1,4.24-1.37q3.24,0,4.59,2t1.34,7.29v22h-7.47V577.48a12,12,0,0,0-.57-4.54,2.07,2.07,0,0,0-2-1.18,2.24,2.24,0,0,0-2.11,1.4,9.52,9.52,0,0,0-.71,4.16v19.39Z"/><path class="cls-4" d="M368.08,586a8,8,0,0,0,.51,3.61,2.13,2.13,0,0,0,1.94.78l.41,0,.41,0v6.38c-1,.11-1.8.19-2.54.24s-1.32.08-1.77.08q-3.65,0-5-1.77T360.61,588V571.76h-3V566h3V559.5h7.47V566h3.27v5.72h-3.27Z"/><path class="cls-4" d="M407.17,588.33a12.55,12.55,0,0,1-3.54,6.83,9.49,9.49,0,0,1-6.65,2.32q-5.61,0-8.24-3.83t-2.64-12q0-8.37,2.65-12.31t8.28-3.94q5.36,0,8.08,3.59t2.72,10.64v3.16H393.39v.43a16.82,16.82,0,0,0,.85,6.28,2.86,2.86,0,0,0,2.74,1.94,2.65,2.65,0,0,0,2.23-1.21,7.44,7.44,0,0,0,1.15-3.53ZM393.39,578h7.29a11.79,11.79,0,0,0-.93-5.26,3,3,0,0,0-2.82-1.66,2.8,2.8,0,0,0-2.61,1.73A12.45,12.45,0,0,0,393.39,578Z"/><path class="cls-4" d="M423.78,596.71V566h7.07v7.63h.35a12.62,12.62,0,0,1,3-6.17,6.9,6.9,0,0,1,5.13-2.12h.32v8l-.73,0h-1.08c-2.25,0-3.91.56-5,1.7s-1.6,2.89-1.6,5.26v16.47Z"/><path class="cls-4" d="M454.33,596.71V566h7.07v4.89a10.74,10.74,0,0,1,3.13-4.13,6.88,6.88,0,0,1,4.24-1.37q3.24,0,4.59,2t1.34,7.29v22h-7.47V577.48a12,12,0,0,0-.57-4.54,2.07,2.07,0,0,0-2-1.18,2.24,2.24,0,0,0-2.11,1.4,9.52,9.52,0,0,0-.71,4.16v19.39Z"/><path class="cls-4" d="M504.51,596.76v-5.88a11.42,11.42,0,0,1-2.53,4.64,4.94,4.94,0,0,1-3.62,1.56q-3.62,0-5.52-4.06t-1.9-11.74q0-8,1.77-11.93t5.36-3.92A5.33,5.33,0,0,1,502,567a11.11,11.11,0,0,1,2.52,4.84V566H512v30.72Zm.37-15.64a20.73,20.73,0,0,0-.81-6.61c-.54-1.51-1.34-2.27-2.38-2.27s-1.9.72-2.38,2.15a24.15,24.15,0,0,0-.74,7.08,22.29,22.29,0,0,0,.75,6.73c.49,1.45,1.27,2.18,2.31,2.18s1.92-.76,2.45-2.28A22.6,22.6,0,0,0,504.88,581.12Z"/><path class="cls-4" d="M529.73,596.76V555.14h7.43v41.62Z"/><path class="cls-4" d="M563.85,586a8.14,8.14,0,0,0,.5,3.61,2.15,2.15,0,0,0,1.94.78l.42,0,.41,0v6.38c-1,.11-1.81.19-2.54.24s-1.33.08-1.77.08q-3.64,0-5-1.77t-1.4-7.27V571.76h-3V566h3V559.5h7.48V566h3.27v5.72h-3.27Z"/><path class="cls-4" d="M583,559a4.11,4.11,0,0,1,1.2-3,3.91,3.91,0,0,1,2.92-1.24,4.13,4.13,0,0,1,4.2,4.21,3.87,3.87,0,0,1-1.25,2.92,4.1,4.1,0,0,1-2.95,1.2A4.24,4.24,0,0,1,583,559Zm.48,37.79V566h7.42v30.72Z"/><path class="cls-4" d="M607.15,581.39q0-8.08,2.71-12t8.28-4q5.61,0,8.33,4t2.73,12q0,8.11-2.73,12.05t-8.33,3.93q-5.57,0-8.28-4T607.15,581.39Zm11,9.76c1.2,0,2.06-.74,2.56-2.22a38.48,38.48,0,0,0,0-15.27c-.51-1.52-1.37-2.27-2.55-2.27s-2,.77-2.54,2.31a36.76,36.76,0,0,0,0,15.16C616.12,590.39,617,591.15,618.14,591.15Z"/><path class="cls-4" d="M645.39,596.71V566h7.07v4.89a10.74,10.74,0,0,1,3.13-4.13,6.88,6.88,0,0,1,4.24-1.37q3.24,0,4.59,2t1.34,7.29v22h-7.47V577.48a11.72,11.72,0,0,0-.58-4.54,2.06,2.06,0,0,0-2-1.18,2.23,2.23,0,0,0-2.11,1.4,9.52,9.52,0,0,0-.71,4.16v19.39Z"/><path class="cls-4" d="M695.56,596.76v-5.88a11.3,11.3,0,0,1-2.52,4.64,4.94,4.94,0,0,1-3.62,1.56q-3.61,0-5.52-4.06T682,581.28q0-8,1.77-11.93c1.18-2.61,3-3.92,5.36-3.92a5.33,5.33,0,0,1,3.92,1.54,11,11,0,0,1,2.51,4.84V566H703v30.72Zm.38-15.64a20.73,20.73,0,0,0-.81-6.61c-.55-1.51-1.34-2.27-2.39-2.27s-1.89.72-2.38,2.15a24.59,24.59,0,0,0-.73,7.08,22.29,22.29,0,0,0,.75,6.73c.49,1.45,1.26,2.18,2.31,2.18s1.92-.76,2.45-2.28A22.6,22.6,0,0,0,695.94,581.12Z"/><path class="cls-4" d="M720.79,596.76V555.14h7.42v41.62Z"/><path class="cls-4" d="M366.24,662.12V620.5h8.06v16.3h6.33V620.5h8.06v41.62h-8.06V643.37H374.3v18.75Z"/><path class="cls-4" d="M419,662.12v-5.87a11.56,11.56,0,0,1-2.53,4.64,4.93,4.93,0,0,1-3.61,1.55q-3.61,0-5.52-4.05t-1.9-11.75q0-8,1.77-11.92c1.17-2.62,3-3.93,5.35-3.93a5.36,5.36,0,0,1,3.93,1.55,11.15,11.15,0,0,1,2.51,4.84V631.4h7.47v30.72Zm.37-15.64a20.66,20.66,0,0,0-.81-6.6c-.54-1.52-1.33-2.28-2.38-2.28s-1.89.72-2.38,2.16a24.11,24.11,0,0,0-.73,7.07,22.64,22.64,0,0,0,.74,6.73c.5,1.45,1.27,2.18,2.32,2.18s1.91-.76,2.45-2.27A22.78,22.78,0,0,0,419.34,646.48Z"/><path class="cls-4" d="M444.09,662.07V631.4h7.08V639h.34a12.66,12.66,0,0,1,3-6.17,6.9,6.9,0,0,1,5.14-2.13H460v8l-.74,0h-1.07a6.57,6.57,0,0,0-5,1.7c-1.06,1.14-1.59,2.89-1.59,5.27v16.46Z"/><path class="cls-4" d="M481.05,662.12l-7.68-30.72h7.95l1.7,10.35q.42,2.89.87,6.32c.29,2.28.56,4.67.81,7.19h.56c.31-3,.62-5.6.91-7.82s.55-3.84.76-4.87l2.18-11.17h7.69l-8.06,30.72Z"/><path class="cls-4" d="M530.11,653.69a12.51,12.51,0,0,1-3.53,6.84,9.55,9.55,0,0,1-6.65,2.31c-3.75,0-6.49-1.28-8.25-3.83s-2.63-6.54-2.63-12,.88-9.69,2.64-12.31,4.53-3.94,8.29-3.94q5.34,0,8.07,3.59T530.78,645v3.17H516.34v.42a16.78,16.78,0,0,0,.85,6.28,2.85,2.85,0,0,0,2.74,1.94,2.64,2.64,0,0,0,2.23-1.21,7.33,7.33,0,0,0,1.14-3.52Zm-13.77-10.37h7.28a11.63,11.63,0,0,0-.93-5.25,3,3,0,0,0-2.82-1.67,2.79,2.79,0,0,0-2.6,1.73A12.2,12.2,0,0,0,516.34,643.32Z"/><path class="cls-4" d="M545.21,657l5.37-3.91a7.42,7.42,0,0,0,1.73,2.73,3.23,3.23,0,0,0,2.21,1,2.54,2.54,0,0,0,1.87-.8,2.61,2.61,0,0,0,.79-1.92q0-1.93-4.18-4.62l-.93-.61a16.69,16.69,0,0,1-4.91-4.37,8.64,8.64,0,0,1-1.42-4.89,8.29,8.29,0,0,1,2.73-6.34,10.26,10.26,0,0,1,12.15-1,9.21,9.21,0,0,1,3.47,4.24l-4.94,3.32a4.92,4.92,0,0,0-1.45-2.43,3.38,3.38,0,0,0-2.3-1,2.9,2.9,0,0,0-2,.71,2.37,2.37,0,0,0-.77,1.82q0,1.86,3.86,4.23c1,.64,1.85,1.15,2.42,1.54a14,14,0,0,1,4.15,4,8.71,8.71,0,0,1,1.28,4.69,9,9,0,0,1-2.68,6.81,9.8,9.8,0,0,1-7.11,2.58,10.14,10.14,0,0,1-5.49-1.5A10.54,10.54,0,0,1,545.21,657Z"/><path class="cls-4" d="M589.27,651.4a8.11,8.11,0,0,0,.5,3.61,2.16,2.16,0,0,0,2,.78l.41,0,.41,0v6.38c-1,.11-1.8.19-2.54.24s-1.33.08-1.77.08q-3.65,0-5-1.77t-1.39-7.27V637.12h-3V631.4h3v-6.54h7.47v6.54h3.27v5.72h-3.27Z"/><path class="cls-4" d="M628.36,653.69a12.59,12.59,0,0,1-3.54,6.84,9.53,9.53,0,0,1-6.65,2.31q-5.61,0-8.25-3.83t-2.63-12q0-8.37,2.65-12.31t8.28-3.94q5.35,0,8.07,3.59T629,645v3.17H614.58v.42a16.78,16.78,0,0,0,.85,6.28,2.86,2.86,0,0,0,2.74,1.94,2.64,2.64,0,0,0,2.23-1.21,7.44,7.44,0,0,0,1.15-3.52Zm-13.78-10.37h7.29a11.61,11.61,0,0,0-.94-5.25,3,3,0,0,0-2.81-1.67,2.79,2.79,0,0,0-2.61,1.73A12.2,12.2,0,0,0,614.58,643.32Z"/><path class="cls-4" d="M645,662.07V631.4H652V639h.35a12.49,12.49,0,0,1,3-6.17,6.87,6.87,0,0,1,5.13-2.13h.32v8l-.73,0H659q-3.37,0-5,1.7c-1.07,1.14-1.6,2.89-1.6,5.27v16.46Z"/></svg>